<svg width="20" height="20" viewBox="0 0 20 20" fill="none" xmlns="http://www.w3.org/2000/svg">
<path d="M18.925 6.54667L13.2783 6.05667L11.0733 0.865C10.6767 -0.08 9.32333 -0.08 8.92667 0.865L6.72167 6.06833L1.08667 6.54667C0.0600009 6.62833 -0.359999 7.91167 0.421667 8.58833L4.70333 12.2983L3.42 17.805C3.18667 18.8083 4.27167 19.6017 5.15833 19.065L10 16.1483L14.8417 19.0767C15.7283 19.6133 16.8133 18.82 16.58 17.8167L15.2967 12.2983L19.5783 8.58833C20.36 7.91167 19.9517 6.62833 18.925 6.54667ZM10 13.9667L5.61333 16.615L6.78 11.6217L2.90667 8.26167L8.01667 7.81833L10 3.11667L11.995 7.83L17.105 8.27333L13.2317 11.6333L14.3983 16.6267L10 13.9667Z" fill="white"/>
</svg>
