<svg width="26" height="26" viewBox="0 0 26 26" fill="none" xmlns="http://www.w3.org/2000/svg">
<path d="M24.3283 9.16162C25.7867 7.70329 25.1217 5.99996 24.3283 5.17162L20.8283 1.67162C19.3583 0.213291 17.6667 0.878291 16.8383 1.67162L14.855 3.66662H11.8333C9.61667 3.66662 8.33334 4.83329 7.68 6.17496L2.5 11.355V16.0216L1.67167 16.8383C0.213337 18.3083 0.878337 20 1.67167 20.8283L5.17167 24.3283C5.80167 24.9583 6.47834 25.1916 7.12 25.1916C7.94834 25.1916 8.70667 24.7833 9.16167 24.3283L12.3117 21.1666H16.5C18.4833 21.1666 19.4867 19.93 19.8483 18.7166C21.1667 18.3666 21.89 17.3633 22.1817 16.3833C23.99 15.9166 24.6667 14.2016 24.6667 13V9.49996H23.9783L24.3283 9.16162ZM22.3333 13C22.3333 13.525 22.1117 14.1666 21.1667 14.1666H20V15.3333C20 15.8583 19.7783 16.5 18.8333 16.5H17.6667V17.6666C17.6667 18.1916 17.445 18.8333 16.5 18.8333H11.355L7.52834 22.66C7.16667 22.9983 6.95667 22.8 6.82834 22.6716L3.34 19.195C3.00167 18.8333 3.2 18.6233 3.32834 18.495L4.83334 16.9783V12.3116L7.16667 9.97829V11.8333C7.16667 13.245 8.1 15.3333 10.6667 15.3333C13.2333 15.3333 14.1667 13.245 14.1667 11.8333H22.3333V13ZM22.6717 7.50496L20.6883 9.49996H11.8333V11.8333C11.8333 12.3583 11.6117 13 10.6667 13C9.72167 13 9.5 12.3583 9.5 11.8333V8.33329C9.5 7.79662 9.69834 5.99996 11.8333 5.99996H15.8117L18.4717 3.33996C18.8333 3.00162 19.0433 3.19996 19.1717 3.32829L22.66 6.80496C22.9983 7.16662 22.8 7.37662 22.6717 7.50496Z" fill="white"/>
</svg>
