<svg width="23.6" height="23.6" viewBox="0 0 24 24" fill="none" xmlns="http://www.w3.org/2000/svg">
<path d="M9.47532 0.372885C9.60599 0.417218 9.73432 0.470885 9.85916 0.531552L11.356 1.26889C11.5563 1.3675 11.7767 1.41878 12 1.41878C12.2233 1.41878 12.4436 1.3675 12.644 1.26889L14.1408 0.531552C14.9042 0.156069 15.7854 0.0991334 16.5908 0.373266C17.3961 0.647398 18.0596 1.23015 18.4353 1.99339L18.5217 2.18239L18.5952 2.37722L19.1318 3.95572C19.2777 4.38505 19.6148 4.72105 20.043 4.86689L21.6227 5.40355C22.0548 5.55056 22.4505 5.78808 22.7835 6.10023C23.1165 6.41239 23.379 6.792 23.5536 7.21371C23.7282 7.63543 23.8108 8.08953 23.7959 8.54571C23.781 9.00189 23.6689 9.44964 23.4672 9.85905L22.731 11.3559C22.6324 11.5562 22.5811 11.7766 22.5811 11.9999C22.5811 12.2232 22.6324 12.4435 22.731 12.6439L23.4672 14.1407C23.6687 14.5501 23.7806 14.9977 23.7954 15.4538C23.8102 15.9098 23.7276 16.3638 23.553 16.7853C23.3784 17.2069 23.116 17.5864 22.7831 17.8985C22.4502 18.2105 22.0546 18.448 21.6227 18.5951L20.043 19.1317C19.8317 19.2038 19.6397 19.3234 19.482 19.4814C19.3242 19.6394 19.2048 19.8315 19.133 20.0429L18.5952 21.6226C18.4481 22.0545 18.2106 22.4501 17.8986 22.783C17.5865 23.1159 17.207 23.3783 16.7854 23.5529C16.3639 23.7275 15.9099 23.8101 15.4539 23.7953C14.9978 23.7805 14.5502 23.6686 14.1408 23.4671L12.644 22.7309C12.4436 22.6323 12.2233 22.581 12 22.581C11.7767 22.581 11.5563 22.6323 11.356 22.7309L9.85916 23.4671C9.4498 23.6686 9.00216 23.7805 8.54611 23.7953C8.09007 23.8101 7.63611 23.7275 7.21454 23.5529C6.79297 23.3783 6.41349 23.1159 6.10141 22.783C5.78934 22.4501 5.55186 22.0545 5.40482 21.6226L4.86816 20.0429C4.79595 19.8315 4.67614 19.6394 4.51795 19.4817C4.35976 19.3239 4.16744 19.2045 3.95582 19.1329L2.37732 18.5951C1.94528 18.4481 1.54954 18.2107 1.21654 17.8987C0.883535 17.5867 0.620924 17.2072 0.44624 16.7857C0.271555 16.3641 0.188816 15.9101 0.203546 15.454C0.218275 14.9979 0.330135 14.5502 0.531657 14.1407L1.26899 12.6439C1.3676 12.4435 1.41889 12.2232 1.41889 11.9999C1.41889 11.7766 1.3676 11.5562 1.26899 11.3559L0.531657 9.85905C0.330135 9.44962 0.218275 9.0019 0.203546 8.5458C0.188816 8.0897 0.271555 7.6357 0.44624 7.21411C0.620924 6.79253 0.883535 6.41306 1.21654 6.10104C1.54954 5.78902 1.94528 5.55163 2.37732 5.40472L3.95582 4.86805C4.16747 4.796 4.35972 4.67625 4.51771 4.51806C4.67571 4.35986 4.79521 4.16746 4.86699 3.95572L5.40366 2.37722C5.53932 1.97821 5.75227 1.60984 6.03033 1.29315C6.3084 0.976455 6.64614 0.717652 7.02425 0.531521C7.40236 0.34539 7.81344 0.235578 8.234 0.208359C8.65457 0.18114 9.07637 0.237046 9.47532 0.372885ZM7.06032 2.93955L6.52366 4.51922C6.3654 4.98451 6.10236 5.40722 5.75484 5.75474C5.40733 6.10226 4.98461 6.3653 4.51932 6.52355L2.94082 7.06022C2.74448 7.12716 2.56466 7.23518 2.41335 7.37708C2.26204 7.51899 2.14273 7.69152 2.06335 7.88317C1.98397 8.07482 1.94636 8.2812 1.95302 8.48853C1.95969 8.69586 2.01047 8.89939 2.10199 9.08555L2.83932 10.5824C3.0565 11.0234 3.16945 11.5083 3.16945 11.9999C3.16945 12.4914 3.0565 12.9764 2.83932 13.4174L2.10199 14.9131C2.01028 15.0992 1.95934 15.3027 1.95258 15.5101C1.94582 15.7175 1.98339 15.924 2.06279 16.1157C2.14219 16.3074 2.26159 16.4799 2.413 16.6218C2.56442 16.7637 2.74436 16.8716 2.94082 16.9384L4.51932 17.4751C4.98461 17.6333 5.40733 17.8963 5.75484 18.2439C6.10236 18.5914 6.3654 19.0141 6.52366 19.4794L7.06032 21.0591C7.12678 21.2557 7.23453 21.436 7.37635 21.5876C7.51816 21.7392 7.69077 21.8588 7.88258 21.9382C8.0744 22.0176 8.28098 22.0551 8.48848 22.0482C8.69598 22.0412 8.89959 21.99 9.08566 21.8979L10.5825 21.1606C11.0235 20.9434 11.5084 20.8304 12 20.8304C12.4915 20.8304 12.9765 20.9434 13.4175 21.1606L14.9132 21.8979C15.0993 21.9896 15.3028 22.0405 15.5102 22.0473C15.7176 22.0541 15.9241 22.0165 16.1158 21.9371C16.3075 21.8577 16.48 21.7383 16.6219 21.5869C16.7638 21.4355 16.8717 21.2555 16.9385 21.0591L17.4752 19.4794C17.6334 19.0141 17.8964 18.5914 18.244 18.2439C18.5915 17.8963 19.0142 17.6333 19.4795 17.4751L21.0592 16.9384C21.2556 16.8716 21.4356 16.7637 21.587 16.6218C21.7384 16.4799 21.8578 16.3074 21.9372 16.1157C22.0166 15.924 22.0542 15.7175 22.0474 15.5101C22.0406 15.3027 21.9897 15.0992 21.898 14.9131L21.1607 13.4162C20.9437 12.9754 20.8308 12.4906 20.8308 11.9993C20.8308 11.508 20.9437 11.0232 21.1607 10.5824L21.898 9.08555C21.9897 8.89942 22.0406 8.69587 22.0474 8.48848C22.0542 8.28109 22.0166 8.07465 21.9372 7.88294C21.8578 7.69124 21.7384 7.51868 21.587 7.3768C21.4356 7.23493 21.2556 7.12699 21.0592 7.06022L19.4795 6.52355C19.0142 6.3653 18.5915 6.10226 18.244 5.75474C17.8964 5.40722 17.6334 4.98451 17.4752 4.51922L16.9385 2.94072L16.9047 2.85205L16.8662 2.76572L16.7938 2.63622C16.6022 2.33007 16.3037 2.10594 15.9563 2.00723C15.6089 1.90851 15.2371 1.94224 14.9132 2.10189L13.4163 2.83922C12.9755 3.05621 12.4907 3.16905 11.9994 3.16905C11.5081 3.16905 11.0233 3.05621 10.5825 2.83922L9.08566 2.10189C8.89958 2.01037 8.69613 1.9596 8.48888 1.95294C8.28162 1.94629 8.07533 1.98391 7.88377 2.06329C7.69221 2.14268 7.51978 2.262 7.37798 2.41331C7.23619 2.56461 7.12829 2.74441 7.06149 2.94072L7.06032 2.93955ZM9.72499 14.7882L16.0483 8.46489C16.2045 8.30833 16.4141 8.21668 16.635 8.20837C16.856 8.20006 17.0719 8.27571 17.2393 8.4201C17.4067 8.56449 17.5133 8.76692 17.5376 8.98669C17.5619 9.20645 17.5021 9.42726 17.3702 9.60472L17.285 9.70272L10.285 16.7027C10.1267 16.861 9.91381 16.9525 9.69008 16.9586C9.46634 16.9647 9.24879 16.8848 9.08216 16.7354L8.99466 16.6444L6.07799 13.1444C5.93695 12.9747 5.86524 12.758 5.8772 12.5377C5.88917 12.3173 5.98394 12.1097 6.14252 11.9562C6.3011 11.8028 6.5118 11.715 6.7324 11.7103C6.953 11.7056 7.16722 11.7845 7.33216 11.9311L7.42199 12.0244L9.72499 14.7882Z" fill="white"/>
</svg>
