<svg width="17" height="17" viewBox="0 0 17 17" fill="none" xmlns="http://www.w3.org/2000/svg">
<path fill-rule="evenodd" clip-rule="evenodd" d="M3.71004 1.01774C3.89394 0.938349 4.09532 0.908122 4.29444 0.930026C4.49355 0.951931 4.68354 1.02522 4.84578 1.14269C5.83847 1.86643 6.58987 2.88328 7.22966 3.81762L7.73111 4.55472C7.87579 4.76616 7.94788 5.01886 7.93654 5.2748C7.9252 5.53074 7.83104 5.77608 7.66823 5.97391L7.59199 6.05799L6.5262 7.12356L6.6386 7.36245C6.91369 7.9196 7.38842 8.72192 8.10288 9.43701C8.59622 9.92281 9.15239 10.3404 9.75658 10.6786L10.045 10.8334L10.3021 10.9607L10.4168 11.0134L11.4818 9.9478C11.6775 9.75237 11.9357 9.63187 12.2112 9.60731C12.4867 9.58275 12.7621 9.6557 12.9893 9.81342L13.7863 10.3659C14.6918 11.0024 15.6373 11.7277 16.3722 12.6691C16.4992 12.8325 16.58 13.027 16.6062 13.2322C16.6323 13.4375 16.6028 13.6461 16.5207 13.836C15.8629 15.3707 14.1982 16.6776 12.4666 16.6131L12.2308 16.6005L12.0477 16.5848L11.8449 16.5613L11.6241 16.5314L11.3843 16.4913L11.1281 16.441L10.8562 16.3805L10.5685 16.3066L10.2659 16.2202L9.94993 16.1181C8.49901 15.6261 6.65746 14.6596 4.76796 12.7705C2.87925 10.8821 1.9125 9.04096 1.42047 7.59034L1.3183 7.27444L1.23184 6.9719L1.15796 6.68429L1.09665 6.41239C1.07894 6.32724 1.06244 6.24184 1.04713 6.15622L1.00783 5.91654L0.976395 5.69573L0.953602 5.49299L0.937882 5.30989L0.925306 5.07414C0.861642 3.34848 2.18209 1.67233 3.71004 1.01774ZM4.11639 2.56345C3.27382 3.00351 2.45797 4.00936 2.49491 5.01599L2.51063 5.27374L2.52792 5.43483L2.55071 5.61557L2.58215 5.81439L2.62224 6.03206L2.67333 6.26623L2.73621 6.51769L2.81166 6.78409L2.90126 7.06541C2.93427 7.16128 2.96886 7.25951 3.00658 7.36009L3.12762 7.66813L3.26596 7.98796C3.75955 9.07396 4.5644 10.3454 5.87934 11.6593C7.1935 12.9732 8.46522 13.7787 9.55144 14.2722L9.87134 14.4105L10.1794 14.5315C10.28 14.5692 10.3783 14.6038 10.4742 14.6368L10.7556 14.7264L11.0228 14.8018L11.2735 14.8647L11.5077 14.9157L11.7255 14.9558L11.9251 14.9873L12.1059 15.0108L12.2662 15.0265L12.524 15.0423C13.5175 15.0792 14.5314 14.2682 14.97 13.4368C14.4104 12.7807 13.7156 12.2424 12.9492 11.7002L12.3613 11.2908L12.212 11.4471L11.8929 11.7953L11.7239 11.9729C11.2633 12.442 10.7257 12.8404 10.0812 12.5803L9.90356 12.5056L9.68663 12.4082L9.56559 12.3508L9.29993 12.218L9.00833 12.0609C8.27039 11.6503 7.59165 11.1414 6.99072 10.5482C6.39737 9.94734 5.88838 9.26874 5.4777 8.53096L5.32051 8.24021L5.18689 7.97382L5.03284 7.63592L4.95817 7.45675C4.71373 6.85245 5.05013 6.34246 5.48006 5.90083L5.65612 5.72795L6.09391 5.32482L6.25111 5.17551L5.87934 4.63094C5.3268 3.82941 4.78683 3.10724 4.11639 2.56345Z" fill="white"/>
</svg>
