<svg width="12" height="13" viewBox="0 0 12 13" fill="none" xmlns="http://www.w3.org/2000/svg">
<path d="M6 6.0625C6.79565 6.0625 7.55871 5.74643 8.12132 5.18382C8.68393 4.62121 9 3.85815 9 3.0625C9 2.26685 8.68393 1.50379 8.12132 0.94118C7.55871 0.378571 6.79565 0.0625 6 0.0625C5.20435 0.0625 4.44129 0.378571 3.87868 0.94118C3.31607 1.50379 3 2.26685 3 3.0625C3 3.85815 3.31607 4.62121 3.87868 5.18382C4.44129 5.74643 5.20435 6.0625 6 6.0625ZM8 3.0625C8 3.59293 7.78929 4.10164 7.41421 4.47671C7.03914 4.85179 6.53043 5.0625 6 5.0625C5.46957 5.0625 4.96086 4.85179 4.58579 4.47671C4.21071 4.10164 4 3.59293 4 3.0625C4 2.53207 4.21071 2.02336 4.58579 1.64829C4.96086 1.27321 5.46957 1.0625 6 1.0625C6.53043 1.0625 7.03914 1.27321 7.41421 1.64829C7.78929 2.02336 8 2.53207 8 3.0625ZM12 11.0625C12 12.0625 11 12.0625 11 12.0625H1C1 12.0625 0 12.0625 0 11.0625C0 10.0625 1 7.0625 6 7.0625C11 7.0625 12 10.0625 12 11.0625ZM11 11.0585C10.999 10.8125 10.846 10.0725 10.168 9.3945C9.516 8.7425 8.289 8.0625 6 8.0625C3.71 8.0625 2.484 8.7425 1.832 9.3945C1.154 10.0725 1.002 10.8125 1 11.0585H11Z" fill="#202020"/>
</svg>
