<svg width="16" height="16" viewBox="0 0 16 17" fill="none" xmlns="http://www.w3.org/2000/svg">
<path d="M11.742 10.4065C12.7103 9.08519 13.144 7.44699 12.9563 5.81965C12.7686 4.19231 11.9734 2.69584 10.7297 1.62963C9.4861 0.563421 7.88573 0.00610392 6.24882 0.0691771C4.61191 0.13225 3.05917 0.811062 1.90125 1.96981C0.743334 3.12855 0.0656328 4.68178 0.00373101 6.31873C-0.0581708 7.95569 0.500292 9.55566 1.56739 10.7985C2.63449 12.0414 4.13153 12.8356 5.759 13.0221C7.38648 13.2086 9.02436 12.7737 10.345 11.8045H10.344C10.374 11.8445 10.406 11.8825 10.442 11.9195L14.292 15.7695C14.4795 15.9571 14.7339 16.0626 14.9991 16.0627C15.2644 16.0628 15.5188 15.9575 15.7065 15.77C15.8941 15.5825 15.9996 15.3281 15.9997 15.0629C15.9998 14.7976 15.8945 14.5431 15.707 14.3555L11.857 10.5055C11.8212 10.4693 11.7828 10.4359 11.742 10.4055V10.4065ZM12 6.5625C12 7.28477 11.8577 7.99997 11.5813 8.66726C11.3049 9.33455 10.8998 9.94087 10.3891 10.4516C9.87835 10.9623 9.27203 11.3674 8.60474 11.6438C7.93745 11.9202 7.22225 12.0625 6.49998 12.0625C5.77771 12.0625 5.06251 11.9202 4.39522 11.6438C3.72793 11.3674 3.12162 10.9623 2.61089 10.4516C2.10017 9.94087 1.69505 9.33455 1.41864 8.66726C1.14224 7.99997 0.999982 7.28477 0.999982 6.5625C0.999982 5.10381 1.57945 3.70486 2.6109 2.67341C3.64235 1.64196 5.04129 1.0625 6.49998 1.0625C7.95867 1.0625 9.35762 1.64196 10.3891 2.67341C11.4205 3.70486 12 5.10381 12 6.5625Z" fill="#202020"/>
</svg>
